<svg width="25" height="25" viewBox="0 0 25 25" fill="none" xmlns="http://www.w3.org/2000/svg">
<path d="M7.03125 3.125V12.0852C5.66406 13.0766 4.6875 14.5906 4.6875 16.4062C4.6875 19.418 7.14453 21.875 10.1562 21.875C13.168 21.875 15.625 19.418 15.625 16.4062C15.625 14.5906 14.6484 13.0766 13.2812 12.0852V10.9375H14.8438V9.375H13.2812V7.8125H14.8438V6.25H13.2812V4.6875H14.8438V3.125H7.03125ZM19.1406 3.125C17.6328 3.125 16.4062 4.35156 16.4062 5.85938C16.4062 7.36719 17.6328 8.59375 19.1406 8.59375C20.6484 8.59375 21.875 7.36719 21.875 5.85938C21.875 4.35156 20.6484 3.125 19.1406 3.125ZM8.59375 4.6875H11.7188V12.8172L12.1094 13.0375C13.2781 13.7148 14.0625 14.9594 14.0625 16.4062C14.0625 18.5727 12.3227 20.3125 10.1562 20.3125C7.98984 20.3125 6.25 18.5727 6.25 16.4062C6.25 14.9594 7.03437 13.7148 8.20312 13.0367L8.59375 12.818V4.6875ZM19.1406 4.6875C19.7867 4.6875 20.3125 5.21328 20.3125 5.85938C20.3125 6.50547 19.7867 7.03125 19.1406 7.03125C18.4945 7.03125 17.9688 6.50547 17.9688 5.85938C17.9688 5.21328 18.4945 4.6875 19.1406 4.6875ZM9.375 6.25V14.2094C8.46875 14.5328 7.8125 15.3914 7.8125 16.4078C7.82828 17.0189 8.08214 17.5997 8.51995 18.0264C8.95777 18.453 9.54492 18.6918 10.1562 18.6918C10.7676 18.6918 11.3547 18.453 11.7925 18.0264C12.2304 17.5997 12.4842 17.0189 12.5 16.4078C12.5 15.3914 11.8437 14.5328 10.9375 14.2094V6.25H9.375Z" fill="#112D82"/>
</svg>
