<svg width="25" height="25" viewBox="0 0 25 25" fill="none" xmlns="http://www.w3.org/2000/svg">
<path fill-rule="evenodd" clip-rule="evenodd" d="M10.9375 4.16671C10.5775 4.16658 10.2284 4.29082 9.94941 4.5184C9.6704 4.74597 9.47854 5.06293 9.40629 5.41567C9.379 5.54972 9.32557 5.67709 9.24906 5.7905C9.17254 5.90391 9.07444 6.00114 8.96035 6.07664C8.84626 6.15213 8.71842 6.20442 8.58412 6.23051C8.44982 6.2566 8.3117 6.25598 8.17764 6.22869C8.04359 6.2014 7.91622 6.14797 7.80281 6.07145C7.6894 5.99494 7.59217 5.89684 7.51667 5.78275C7.44118 5.66866 7.38889 5.54081 7.3628 5.40652C7.33671 5.27222 7.33733 5.1341 7.36462 5.00004C7.50259 4.32416 7.82946 3.7013 8.30729 3.20378C8.78512 2.70626 9.39428 2.35451 10.064 2.18938C10.7338 2.02425 11.4367 2.05251 12.091 2.27089C12.7453 2.48928 13.3243 2.88881 13.7606 3.42309C14.1969 3.95737 14.4727 4.60448 14.556 5.28925C14.6392 5.97403 14.5265 6.66836 14.2309 7.29162C13.9353 7.91488 13.4689 8.44149 12.8859 8.81027C12.303 9.17906 11.6274 9.3749 10.9375 9.37504H5.20837C4.93211 9.37504 4.66715 9.26529 4.4718 9.06994C4.27645 8.87459 4.16671 8.60964 4.16671 8.33337C4.16671 8.05711 4.27645 7.79215 4.4718 7.5968C4.66715 7.40145 4.93211 7.29171 5.20837 7.29171H10.9375C11.3519 7.29171 11.7494 7.12709 12.0424 6.83406C12.3354 6.54104 12.5 6.14361 12.5 5.72921C12.5 5.31481 12.3354 4.91738 12.0424 4.62435C11.7494 4.33133 11.3519 4.16671 10.9375 4.16671ZM19.2709 8.33337C18.9108 8.33325 18.5618 8.45748 18.2827 8.68506C18.0037 8.91264 17.8119 9.2296 17.7396 9.58233C17.7124 9.71639 17.659 9.84377 17.5826 9.95721C17.5061 10.0706 17.4081 10.1679 17.294 10.2435C17.18 10.319 17.0522 10.3713 16.9179 10.3975C16.7837 10.4236 16.6456 10.4231 16.5115 10.3959C16.3774 10.3687 16.2501 10.3153 16.1366 10.2388C16.0232 10.1624 15.9259 10.0643 15.8504 9.9503C15.7748 9.83626 15.7225 9.70845 15.6963 9.57418C15.6702 9.43991 15.6707 9.30181 15.698 9.16775C15.8357 8.49178 16.1625 7.86877 16.6402 7.37109C17.1179 6.87342 17.7271 6.5215 18.3969 6.35622C19.0666 6.19094 19.7696 6.21908 20.424 6.43738C21.0784 6.65567 21.6575 7.05515 22.0939 7.58943C22.5303 8.1237 22.8062 8.77083 22.8895 9.45565C22.9728 10.1405 22.8601 10.8349 22.5645 11.4582C22.2688 12.0815 21.8024 12.6082 21.2194 12.977C20.6364 13.3458 19.9607 13.5416 19.2709 13.5417H3.12504C2.84877 13.5417 2.58382 13.432 2.38847 13.2366C2.19312 13.0413 2.08337 12.7763 2.08337 12.5C2.08337 12.2238 2.19312 11.9588 2.38847 11.7635C2.58382 11.5681 2.84877 11.4584 3.12504 11.4584H19.2709C19.6853 11.4584 20.0827 11.2938 20.3757 11.0007C20.6688 10.7077 20.8334 10.3103 20.8334 9.89587C20.8334 9.48147 20.6688 9.08404 20.3757 8.79102C20.0827 8.49799 19.6853 8.33337 19.2709 8.33337ZM13.573 19.5844C13.6323 19.874 13.7725 20.1408 13.9774 20.3538C14.1822 20.5669 14.4433 20.7175 14.7304 20.7881C15.0174 20.8587 15.3185 20.8465 15.5989 20.7528C15.8792 20.6591 16.1272 20.4879 16.3141 20.2589C16.5011 20.0299 16.6192 19.7526 16.6548 19.4592C16.6904 19.1657 16.6421 18.8682 16.5154 18.6012C16.3887 18.3341 16.1888 18.1085 15.9391 17.9504C15.6893 17.7924 15.3998 17.7085 15.1042 17.7084H8.33337C8.05711 17.7084 7.79215 17.5986 7.5968 17.4033C7.40145 17.2079 7.29171 16.943 7.29171 16.6667C7.29171 16.3904 7.40145 16.1255 7.5968 15.9301C7.79215 15.7348 8.05711 15.625 8.33337 15.625H15.1042C15.7941 15.6251 16.4698 15.821 17.0528 16.1898C17.6358 16.5586 18.1022 17.0852 18.3978 17.7086C18.6934 18.3319 18.8061 19.0263 18.7228 19.7111C18.6395 20.3959 18.3636 21.043 17.9272 21.5773C17.4908 22.1116 16.9117 22.5111 16.2573 22.7294C15.6029 22.9477 14.9 22.9758 14.2302 22.8105C13.5604 22.6452 12.9513 22.2933 12.4735 21.7957C11.9958 21.298 11.6691 20.675 11.5313 19.999C11.4763 19.7283 11.5311 19.4468 11.6837 19.2164C11.8363 18.9861 12.0741 18.8258 12.3448 18.7709C12.6156 18.7159 12.8971 18.7707 13.1274 18.9233C13.3577 19.0759 13.518 19.3137 13.573 19.5844Z" fill="#112D82"/>
</svg>
